<svg width="215" height="184" viewBox="0 0 215 184" fill="none" xmlns="http://www.w3.org/2000/svg">
<path d="M0 107.132C0 150.881 27.0747 184 71.4976 184C100.109 184 132.151 166.124 151.337 141.71C151.337 141.71 154.921 142.239 157.295 142.339C167.507 142.77 174.477 135.676 176.956 125.909C181.723 107.132 168.615 97.157 168.615 97.157C168.615 94.1766 168.395 91.3463 167.972 88.6595C169.18 88.5593 169.858 88.501 169.858 88.501L191.877 96.1066C216.263 101.638 227.564 100.255 194.256 82.9486L170.98 69.1414C170.681 67.1319 170.313 65.1962 169.858 63.4905C164.219 42.3389 159.048 33.4288 144.153 22.2394C130.85 12.2461 116.19 5.80729 101.112 2.00292C81.86 -2.85463 64.7049 1.65941 46.1147 9.78621C38.9412 12.9222 25.5204 21.8819 15.0295 38.5842C3.21892 57.3874 3.3316 72.1286 4.52061 73.5429C4.6981 73.754 5.83591 74.185 7.63968 74.7716C2.7113 83.7048 0 94.4838 0 107.132Z" fill="#353535"/>
<path d="M27.878 105.208C26.5607 105.208 25.3733 104.913 24.316 104.324C23.2587 103.717 22.418 102.877 21.794 101.802C21.1873 100.727 20.884 99.462 20.884 98.006C20.884 96.5327 21.1873 95.2587 21.794 94.184C22.418 93.1093 23.2587 92.2773 24.316 91.688C25.3733 91.0987 26.5607 90.804 27.878 90.804C29.0567 90.804 30.088 91.064 30.972 91.584C31.856 92.104 32.5407 92.8927 33.026 93.95C33.5113 95.0073 33.754 96.3593 33.754 98.006C33.754 99.6353 33.52 100.987 33.052 102.062C32.584 103.119 31.908 103.908 31.024 104.428C30.1573 104.948 29.1087 105.208 27.878 105.208ZM28.58 101.88C29.2387 101.88 29.8367 101.724 30.374 101.412C30.9113 101.1 31.336 100.658 31.648 100.086C31.9773 99.4967 32.142 98.8033 32.142 98.006C32.142 97.1913 31.9773 96.498 31.648 95.926C31.336 95.354 30.9113 94.912 30.374 94.6C29.8367 94.288 29.2387 94.132 28.58 94.132C27.904 94.132 27.2973 94.288 26.76 94.6C26.2227 94.912 25.7893 95.354 25.46 95.926C25.148 96.498 24.992 97.1913 24.992 98.006C24.992 98.8033 25.148 99.4967 25.46 100.086C25.7893 100.658 26.2227 101.1 26.76 101.412C27.2973 101.724 27.904 101.88 28.58 101.88ZM32.246 105V102.14L32.324 97.98L32.064 93.846V85.708H36.12V105H32.246ZM46.816 105.208C45.2213 105.208 43.8173 104.896 42.604 104.272C41.408 103.648 40.4806 102.799 39.822 101.724C39.1633 100.632 38.834 99.3927 38.834 98.006C38.834 96.602 39.1546 95.3627 39.796 94.288C40.4546 93.196 41.3473 92.3467 42.474 91.74C43.6006 91.116 44.8746 90.804 46.296 90.804C47.6653 90.804 48.896 91.0987 49.988 91.688C51.0973 92.26 51.9726 93.092 52.614 94.184C53.2553 95.2587 53.576 96.55 53.576 98.058C53.576 98.214 53.5673 98.396 53.55 98.604C53.5326 98.7947 53.5153 98.9767 53.498 99.15H42.136V96.784H51.366L49.806 97.486C49.806 96.758 49.6586 96.1253 49.364 95.588C49.0693 95.0507 48.662 94.6347 48.142 94.34C47.622 94.028 47.0153 93.872 46.322 93.872C45.6286 93.872 45.0133 94.028 44.476 94.34C43.956 94.6347 43.5486 95.0593 43.254 95.614C42.9593 96.1513 42.812 96.7927 42.812 97.538V98.162C42.812 98.9247 42.9766 99.6007 43.306 100.19C43.6526 100.762 44.1293 101.204 44.736 101.516C45.36 101.811 46.088 101.958 46.92 101.958C47.6653 101.958 48.3153 101.845 48.87 101.62C49.442 101.395 49.962 101.057 50.43 100.606L52.588 102.946C51.9466 103.674 51.1406 104.237 50.17 104.636C49.1993 105.017 48.0813 105.208 46.816 105.208ZM59.8184 105L53.9424 91.012H58.1284L63.0164 103.05H60.9364L66.0064 91.012H69.9064L64.0044 105H59.8184ZM30.452 125V122.27L30.192 121.672V116.784C30.192 115.917 29.9233 115.241 29.386 114.756C28.866 114.271 28.06 114.028 26.968 114.028C26.2227 114.028 25.486 114.149 24.758 114.392C24.0473 114.617 23.4407 114.929 22.938 115.328L21.482 112.494C22.2447 111.957 23.1633 111.541 24.238 111.246C25.3127 110.951 26.4047 110.804 27.514 110.804C29.646 110.804 31.3013 111.307 32.48 112.312C33.6587 113.317 34.248 114.886 34.248 117.018V125H30.452ZM26.188 125.208C25.096 125.208 24.16 125.026 23.38 124.662C22.6 124.281 22.002 123.769 21.586 123.128C21.17 122.487 20.962 121.767 20.962 120.97C20.962 120.138 21.1613 119.41 21.56 118.786C21.976 118.162 22.626 117.677 23.51 117.33C24.394 116.966 25.5467 116.784 26.968 116.784H30.686V119.15H27.41C26.4567 119.15 25.798 119.306 25.434 119.618C25.0873 119.93 24.914 120.32 24.914 120.788C24.914 121.308 25.1133 121.724 25.512 122.036C25.928 122.331 26.4913 122.478 27.202 122.478C27.878 122.478 28.4847 122.322 29.022 122.01C29.5593 121.681 29.9493 121.204 30.192 120.58L30.816 122.452C30.5213 123.353 29.984 124.038 29.204 124.506C28.424 124.974 27.4187 125.208 26.188 125.208ZM37.9189 125V111.012H41.7929V114.964L41.2469 113.82C41.6629 112.832 42.3302 112.087 43.2489 111.584C44.1675 111.064 45.2855 110.804 46.6029 110.804V114.548C46.4295 114.531 46.2735 114.522 46.1349 114.522C45.9962 114.505 45.8489 114.496 45.6929 114.496C44.5835 114.496 43.6822 114.817 42.9889 115.458C42.3129 116.082 41.9749 117.061 41.9749 118.396V125H37.9189ZM55.217 125.208C53.5703 125.208 52.2877 124.792 51.369 123.96C50.4503 123.111 49.991 121.854 49.991 120.19V107.918H54.047V120.138C54.047 120.727 54.203 121.187 54.515 121.516C54.827 121.828 55.2517 121.984 55.789 121.984C56.4303 121.984 56.9763 121.811 57.427 121.464L58.519 124.324C58.103 124.619 57.6003 124.844 57.011 125C56.439 125.139 55.841 125.208 55.217 125.208ZM47.833 114.444V111.324H57.531V114.444H47.833ZM28.632 145.208C27.124 145.208 25.7807 144.905 24.602 144.298C23.4233 143.674 22.496 142.816 21.82 141.724C21.1613 140.632 20.832 139.393 20.832 138.006C20.832 136.602 21.1613 135.363 21.82 134.288C22.496 133.196 23.4233 132.347 24.602 131.74C25.7807 131.116 27.124 130.804 28.632 130.804C30.1053 130.804 31.388 131.116 32.48 131.74C33.572 132.347 34.378 133.222 34.898 134.366L31.752 136.056C31.388 135.397 30.9287 134.912 30.374 134.6C29.8367 134.288 29.2473 134.132 28.606 134.132C27.9127 134.132 27.2887 134.288 26.734 134.6C26.1793 134.912 25.7373 135.354 25.408 135.926C25.096 136.498 24.94 137.191 24.94 138.006C24.94 138.821 25.096 139.514 25.408 140.086C25.7373 140.658 26.1793 141.1 26.734 141.412C27.2887 141.724 27.9127 141.88 28.606 141.88C29.2473 141.88 29.8367 141.733 30.374 141.438C30.9287 141.126 31.388 140.632 31.752 139.956L34.898 141.672C34.378 142.799 33.572 143.674 32.48 144.298C31.388 144.905 30.1053 145.208 28.632 145.208ZM37.2333 145V131.012H41.1073V134.964L40.5613 133.82C40.9773 132.832 41.6447 132.087 42.5633 131.584C43.482 131.064 44.6 130.804 45.9173 130.804V134.548C45.744 134.531 45.588 134.522 45.4493 134.522C45.3107 134.505 45.1633 134.496 45.0073 134.496C43.898 134.496 42.9967 134.817 42.3033 135.458C41.6273 136.082 41.2893 137.061 41.2893 138.396V145H37.2333ZM55.1695 145.208C53.5748 145.208 52.1708 144.896 50.9575 144.272C49.7615 143.648 48.8341 142.799 48.1755 141.724C47.5168 140.632 47.1875 139.393 47.1875 138.006C47.1875 136.602 47.5081 135.363 48.1495 134.288C48.8081 133.196 49.7008 132.347 50.8275 131.74C51.9541 131.116 53.2281 130.804 54.6495 130.804C56.0188 130.804 57.2495 131.099 58.3415 131.688C59.4508 132.26 60.3261 133.092 60.9675 134.184C61.6088 135.259 61.9295 136.55 61.9295 138.058C61.9295 138.214 61.9208 138.396 61.9035 138.604C61.8861 138.795 61.8688 138.977 61.8515 139.15H50.4895V136.784H59.7195L58.1595 137.486C58.1595 136.758 58.0121 136.125 57.7175 135.588C57.4228 135.051 57.0155 134.635 56.4955 134.34C55.9755 134.028 55.3688 133.872 54.6755 133.872C53.9821 133.872 53.3668 134.028 52.8295 134.34C52.3095 134.635 51.9021 135.059 51.6075 135.614C51.3128 136.151 51.1655 136.793 51.1655 137.538V138.162C51.1655 138.925 51.3301 139.601 51.6595 140.19C52.0061 140.762 52.4828 141.204 53.0895 141.516C53.7135 141.811 54.4415 141.958 55.2735 141.958C56.0188 141.958 56.6688 141.845 57.2235 141.62C57.7955 141.395 58.3155 141.057 58.7835 140.606L60.9415 142.946C60.3001 143.674 59.4941 144.237 58.5235 144.636C57.5528 145.017 56.4348 145.208 55.1695 145.208ZM72.829 145V142.27L72.569 141.672V136.784C72.569 135.917 72.3003 135.241 71.763 134.756C71.243 134.271 70.437 134.028 69.345 134.028C68.5996 134.028 67.863 134.149 67.135 134.392C66.4243 134.617 65.8176 134.929 65.315 135.328L63.859 132.494C64.6216 131.957 65.5403 131.541 66.615 131.246C67.6896 130.951 68.7816 130.804 69.891 130.804C72.023 130.804 73.6783 131.307 74.857 132.312C76.0356 133.317 76.625 134.886 76.625 137.018V145H72.829ZM68.565 145.208C67.473 145.208 66.537 145.026 65.757 144.662C64.977 144.281 64.379 143.769 63.963 143.128C63.547 142.487 63.339 141.767 63.339 140.97C63.339 140.138 63.5383 139.41 63.937 138.786C64.353 138.162 65.003 137.677 65.887 137.33C66.771 136.966 67.9236 136.784 69.345 136.784H73.063V139.15H69.787C68.8336 139.15 68.175 139.306 67.811 139.618C67.4643 139.93 67.291 140.32 67.291 140.788C67.291 141.308 67.4903 141.724 67.889 142.036C68.305 142.331 68.8683 142.478 69.579 142.478C70.255 142.478 70.8616 142.322 71.399 142.01C71.9363 141.681 72.3263 141.204 72.569 140.58L73.193 142.452C72.8983 143.353 72.361 144.038 71.581 144.506C70.801 144.974 69.7956 145.208 68.565 145.208ZM86.0158 145.208C84.3692 145.208 83.0865 144.792 82.1678 143.96C81.2492 143.111 80.7898 141.854 80.7898 140.19V127.918H84.8458V140.138C84.8458 140.727 85.0018 141.187 85.3138 141.516C85.6258 141.828 86.0505 141.984 86.5878 141.984C87.2292 141.984 87.7752 141.811 88.2258 141.464L89.3178 144.324C88.9018 144.619 88.3992 144.844 87.8098 145C87.2378 145.139 86.6398 145.208 86.0158 145.208ZM78.6318 134.444V131.324H88.3298V134.444H78.6318ZM91.5947 145V131.012H95.6507V145H91.5947ZM93.6227 129.062C92.8773 129.062 92.2707 128.845 91.8027 128.412C91.3347 127.979 91.1007 127.441 91.1007 126.8C91.1007 126.159 91.3347 125.621 91.8027 125.188C92.2707 124.755 92.8773 124.538 93.6227 124.538C94.368 124.538 94.9747 124.746 95.4427 125.162C95.9107 125.561 96.1447 126.081 96.1447 126.722C96.1447 127.398 95.9107 127.961 95.4427 128.412C94.992 128.845 94.3853 129.062 93.6227 129.062ZM103.211 145L97.335 131.012H101.521L106.409 143.05H104.329L109.399 131.012H113.299L107.397 145H103.211ZM121.515 145.208C119.921 145.208 118.517 144.896 117.303 144.272C116.107 143.648 115.18 142.799 114.521 141.724C113.863 140.632 113.533 139.393 113.533 138.006C113.533 136.602 113.854 135.363 114.495 134.288C115.154 133.196 116.047 132.347 117.173 131.74C118.3 131.116 119.574 130.804 120.995 130.804C122.365 130.804 123.595 131.099 124.687 131.688C125.797 132.26 126.672 133.092 127.313 134.184C127.955 135.259 128.275 136.55 128.275 138.058C128.275 138.214 128.267 138.396 128.249 138.604C128.232 138.795 128.215 138.977 128.197 139.15H116.835V136.784H126.065L124.505 137.486C124.505 136.758 124.358 136.125 124.063 135.588C123.769 135.051 123.361 134.635 122.841 134.34C122.321 134.028 121.715 133.872 121.021 133.872C120.328 133.872 119.713 134.028 119.175 134.34C118.655 134.635 118.248 135.059 117.953 135.614C117.659 136.151 117.511 136.793 117.511 137.538V138.162C117.511 138.925 117.676 139.601 118.005 140.19C118.352 140.762 118.829 141.204 119.435 141.516C120.059 141.811 120.787 141.958 121.619 141.958C122.365 141.958 123.015 141.845 123.569 141.62C124.141 141.395 124.661 141.057 125.129 140.606L127.287 142.946C126.646 143.674 125.84 144.237 124.869 144.636C123.899 145.017 122.781 145.208 121.515 145.208Z" fill="white"/>
<path d="M35.5718 36.6821C35.5718 36.6821 40.4553 45.0425 43.9884 50.1282C48.0563 55.9837 55.2106 64.5179 55.2106 64.5179C55.2106 64.5179 56.4926 54.4646 55.2106 48.241C54.1101 42.8981 50.0671 35.2667 50.0671 35.2667L39.7801 52.4872L33 69C33 69 39.0053 58.4077 43.9884 52.4872C48.4191 47.2231 56.6134 40.2205 56.6134 40.2205L68.7708 57.9128L69.706 37.6256C69.706 37.6256 74.75 46.3683 78.5903 51.5436C81.8904 55.9909 87.7083 62.3949 87.7083 62.3949L85.838 38.8051L97.5278 57.2051L102.905 46.8256C102.905 46.8256 105.955 59.8309 111.789 59.0923C116.815 58.4561 117.612 53.1449 119.037 48.241C119.99 44.9593 119.738 39.5128 119.738 39.5128C119.738 39.5128 114.199 36.6519 110.387 36.6821C107.175 36.7074 102.438 38.8051 102.438 38.8051C102.438 38.8051 101.594 46.2914 103.84 50.1282C105.719 53.3373 111.088 56.2615 111.088 56.2615C111.088 56.2615 112.133 47.3438 111.789 41.6359C111.436 35.7551 109.218 26.7744 109.218 26.7744C109.218 26.7744 112.404 37.3631 115.764 43.5231C118.67 48.8524 124.648 56.2615 124.648 56.2615C124.648 56.2615 126.508 44.7575 128.623 37.6256C130.354 31.7893 134 23 134 23" stroke="white" stroke-width="4" stroke-linecap="round" stroke-linejoin="round"/>
</svg>
