<svg width="215" height="184" viewBox="0 0 215 184" fill="none" xmlns="http://www.w3.org/2000/svg">
<path d="M0 107.132C0 150.881 27.0747 184 71.4976 184C100.109 184 132.151 166.124 151.337 141.71C151.337 141.71 154.921 142.239 157.295 142.339C167.507 142.77 174.477 135.676 176.956 125.909C181.723 107.132 168.615 97.157 168.615 97.157C168.615 94.1766 168.395 91.3463 167.972 88.6595C169.18 88.5593 169.858 88.501 169.858 88.501L191.877 96.1066C216.263 101.638 227.564 100.255 194.256 82.9486L170.98 69.1414C170.681 67.1319 170.313 65.1962 169.858 63.4905C164.219 42.3389 159.048 33.4288 144.153 22.2394C130.85 12.2461 116.19 5.80729 101.112 2.00292C81.86 -2.85463 64.7049 1.65941 46.1147 9.78621C38.9412 12.9222 25.5204 21.8819 15.0295 38.5842C3.21892 57.3874 3.3316 72.1286 4.52061 73.5429C4.6981 73.754 5.83591 74.185 7.63968 74.7716C2.7113 83.7048 0 94.4838 0 107.132Z" fill="#353535"/>
<mask id="path-2-outside-1_0_1" maskUnits="userSpaceOnUse" x="11.8178" y="66.818" width="147.225" height="50.1693" fill="black">
<rect fill="white" x="11.8178" y="66.818" width="147.225" height="50.1693"/>
<path d="M17.3339 71.4079L16.9403 73.5582L14.2501 86.5491L13.0623 86.3032L16.8213 68.1511L17.3657 68.2638L26.1897 84.348C26.7834 85.4687 27.2356 86.3588 27.5464 87.0182C27.6472 86.1989 27.8054 85.269 28.0209 84.2284L30.7215 71.187L31.9092 71.433L28.1503 89.5851L27.6059 89.4724L18.6113 73.0903C17.9846 71.9628 17.5888 71.2156 17.4239 70.8489L17.3339 71.4079Z"/>
<path d="M36.62 88.6872C35.3587 86.5531 34.9992 84.1768 35.5414 81.5585C36.0836 78.9402 37.3555 76.9106 39.3571 75.4696C41.3787 74.0153 43.6432 73.5478 46.1507 74.0671C48.6582 74.5863 50.5509 75.9147 51.8286 78.0522C53.1099 80.173 53.4794 82.5425 52.9372 85.1608C52.395 87.7792 51.1131 89.8155 49.0915 91.2698C47.07 92.7241 44.8054 93.1916 42.2979 92.6723C39.7904 92.1531 37.8978 90.8247 36.62 88.6872ZM40.0863 76.4346C38.3939 77.7119 37.3078 79.5088 36.8282 81.825C36.3485 84.1412 36.63 86.2299 37.6725 88.0912C38.7315 89.9558 40.3498 91.1136 42.5273 91.5646C44.7214 92.0189 46.6664 91.599 48.3623 90.3048C50.0748 89.0141 51.1708 87.2106 51.6505 84.8944C52.1301 82.5782 51.8387 80.4961 50.7762 78.6482C49.7337 76.787 48.1154 75.6292 45.9213 75.1748C43.7273 74.7205 41.7823 75.1404 40.0863 76.4346Z"/>
<path d="M67.7097 91.1081L63.868 96.824L62.606 96.5627L73.808 79.9781L74.5009 80.1216L78.2202 99.796L76.884 99.5193L75.6282 92.7478L67.7097 91.1081ZM73.6632 82.0486C73.6432 82.062 73.5893 82.1558 73.5016 82.3302C73.1212 83.0041 72.7716 83.5706 72.4529 84.0297L68.3442 90.163L75.4212 91.6285L74.0809 84.3931C73.7676 82.9979 73.6284 82.2164 73.6632 82.0486Z"/>
<path d="M87.0558 97.8186L95.9663 84.6979L97.2283 84.9593L85.8479 101.533L85.155 101.39L81.2677 81.6542L82.604 81.9309L85.5815 97.4608C85.7819 98.57 85.8917 99.3279 85.9107 99.7345C86.1539 99.2247 86.5356 98.5861 87.0558 97.8186Z"/>
<path d="M97.9161 97.3632L94.0744 103.079L92.8124 102.818L104.014 86.2333L104.707 86.3767L108.427 106.051L107.09 105.774L105.835 99.003L97.9161 97.3632ZM103.87 88.3037C103.85 88.3171 103.796 88.411 103.708 88.5853C103.328 89.2592 102.978 89.8257 102.659 90.2849L98.5506 96.4181L105.628 97.8836L104.287 90.6482C103.974 89.2531 103.835 88.4716 103.87 88.3037Z"/>
<path d="M116.981 90.1524L110.993 88.9124L111.212 87.855L124.376 90.581L124.157 91.6385L118.169 90.3984L114.66 107.342L113.472 107.096L116.981 90.1524Z"/>
<path d="M124.812 102.933L120.97 108.649L119.708 108.387L130.91 91.8028L131.603 91.9463L135.322 111.621L133.986 111.344L132.73 104.573L124.812 102.933ZM130.765 93.8733C130.745 93.8867 130.692 93.9805 130.604 94.1549C130.223 94.8288 129.874 95.3953 129.555 95.8544L125.446 101.988L132.523 103.453L131.183 96.2178C130.87 94.8226 130.731 94.0411 130.765 93.8733Z"/>
<path d="M138.987 112.38L142.699 94.4541C144.29 94.6611 145.614 94.8739 146.67 95.0926C148.352 95.441 149.646 96.1728 150.551 97.2878C151.459 98.386 151.746 99.7408 151.412 101.352C151.186 102.443 150.663 103.394 149.841 104.204C149.02 105.014 148.164 105.615 147.274 106.009C147.707 106.991 148.245 108.17 148.889 109.547C149.553 110.909 149.986 111.769 150.188 112.126C150.968 113.425 151.978 114.282 153.217 114.696L153.025 115.497C152.022 115.271 151.237 114.951 150.669 114.536C150.105 114.104 149.596 113.526 149.144 112.803C148.708 112.082 147.687 109.91 146.081 106.287C144.464 105.952 143.006 105.598 141.707 105.224L140.175 112.626L138.987 112.38ZM145.572 105.131C146.297 105.282 147.174 104.955 148.2 104.153C149.226 103.35 149.872 102.311 150.136 101.035C150.403 99.7429 150.176 98.6806 149.454 97.8483C148.752 97.0028 147.699 96.4348 146.297 96.1444C145.555 95.9907 144.682 95.8449 143.678 95.7071L141.911 104.242C143.213 104.599 144.433 104.896 145.572 105.131Z"/>
</mask>
<path d="M17.3339 71.4079L16.9403 73.5582L14.2501 86.5491L13.0623 86.3032L16.8213 68.1511L17.3657 68.2638L26.1897 84.348C26.7834 85.4687 27.2356 86.3588 27.5464 87.0182C27.6472 86.1989 27.8054 85.269 28.0209 84.2284L30.7215 71.187L31.9092 71.433L28.1503 89.5851L27.6059 89.4724L18.6113 73.0903C17.9846 71.9628 17.5888 71.2156 17.4239 70.8489L17.3339 71.4079Z" fill="white"/>
<path d="M17.3339 71.4079L16.9403 73.5582L14.2501 86.5491L13.0623 86.3032L16.8213 68.1511L17.3657 68.2638L26.1897 84.348C26.7834 85.4687 27.2356 86.3588 27.5464 87.0182C27.6472 86.1989 27.8054 85.269 28.0209 84.2284L30.7215 71.187L31.9092 71.433L28.1503 89.5851L27.6059 89.4724L18.6113 73.0903C17.9846 71.9628 17.5888 71.2156 17.4239 70.8489L17.3339 71.4079Z" fill="white"/>
<path d="M36.62 88.6872C35.3587 86.5531 34.9992 84.1768 35.5414 81.5585C36.0836 78.9402 37.3555 76.9106 39.3571 75.4696C41.3787 74.0153 43.6432 73.5478 46.1507 74.0671C48.6582 74.5863 50.5509 75.9147 51.8286 78.0522C53.1099 80.173 53.4794 82.5425 52.9372 85.1608C52.395 87.7792 51.1131 89.8155 49.0915 91.2698C47.07 92.7241 44.8054 93.1916 42.2979 92.6723C39.7904 92.1531 37.8978 90.8247 36.62 88.6872ZM40.0863 76.4346C38.3939 77.7119 37.3078 79.5088 36.8282 81.825C36.3485 84.1412 36.63 86.2299 37.6725 88.0912C38.7315 89.9558 40.3498 91.1136 42.5273 91.5646C44.7214 92.0189 46.6664 91.599 48.3623 90.3048C50.0748 89.0141 51.1708 87.2106 51.6505 84.8944C52.1301 82.5782 51.8387 80.4961 50.7762 78.6482C49.7337 76.787 48.1154 75.6292 45.9213 75.1748C43.7273 74.7205 41.7823 75.1404 40.0863 76.4346Z" fill="white"/>
<path d="M36.62 88.6872C35.3587 86.5531 34.9992 84.1768 35.5414 81.5585C36.0836 78.9402 37.3555 76.9106 39.3571 75.4696C41.3787 74.0153 43.6432 73.5478 46.1507 74.0671C48.6582 74.5863 50.5509 75.9147 51.8286 78.0522C53.1099 80.173 53.4794 82.5425 52.9372 85.1608C52.395 87.7792 51.1131 89.8155 49.0915 91.2698C47.07 92.7241 44.8054 93.1916 42.2979 92.6723C39.7904 92.1531 37.8978 90.8247 36.62 88.6872ZM40.0863 76.4346C38.3939 77.7119 37.3078 79.5088 36.8282 81.825C36.3485 84.1412 36.63 86.2299 37.6725 88.0912C38.7315 89.9558 40.3498 91.1136 42.5273 91.5646C44.7214 92.0189 46.6664 91.599 48.3623 90.3048C50.0748 89.0141 51.1708 87.2106 51.6505 84.8944C52.1301 82.5782 51.8387 80.4961 50.7762 78.6482C49.7337 76.787 48.1154 75.6292 45.9213 75.1748C43.7273 74.7205 41.7823 75.1404 40.0863 76.4346Z" fill="white"/>
<path d="M67.7097 91.1081L63.868 96.824L62.606 96.5627L73.808 79.9781L74.5009 80.1216L78.2202 99.796L76.884 99.5193L75.6282 92.7478L67.7097 91.1081ZM73.6632 82.0486C73.6432 82.062 73.5893 82.1558 73.5016 82.3302C73.1212 83.0041 72.7716 83.5706 72.4529 84.0297L68.3442 90.163L75.4212 91.6285L74.0809 84.3931C73.7676 82.9979 73.6284 82.2164 73.6632 82.0486Z" fill="white"/>
<path d="M67.7097 91.1081L63.868 96.824L62.606 96.5627L73.808 79.9781L74.5009 80.1216L78.2202 99.796L76.884 99.5193L75.6282 92.7478L67.7097 91.1081ZM73.6632 82.0486C73.6432 82.062 73.5893 82.1558 73.5016 82.3302C73.1212 83.0041 72.7716 83.5706 72.4529 84.0297L68.3442 90.163L75.4212 91.6285L74.0809 84.3931C73.7676 82.9979 73.6284 82.2164 73.6632 82.0486Z" fill="white"/>
<path d="M87.0558 97.8186L95.9663 84.6979L97.2283 84.9593L85.8479 101.533L85.155 101.39L81.2677 81.6542L82.604 81.9309L85.5815 97.4608C85.7819 98.57 85.8917 99.3279 85.9107 99.7345C86.1539 99.2247 86.5356 98.5861 87.0558 97.8186Z" fill="white"/>
<path d="M87.0558 97.8186L95.9663 84.6979L97.2283 84.9593L85.8479 101.533L85.155 101.39L81.2677 81.6542L82.604 81.9309L85.5815 97.4608C85.7819 98.57 85.8917 99.3279 85.9107 99.7345C86.1539 99.2247 86.5356 98.5861 87.0558 97.8186Z" fill="white"/>
<path d="M97.9161 97.3632L94.0744 103.079L92.8124 102.818L104.014 86.2333L104.707 86.3767L108.427 106.051L107.09 105.774L105.835 99.003L97.9161 97.3632ZM103.87 88.3037C103.85 88.3171 103.796 88.411 103.708 88.5853C103.328 89.2592 102.978 89.8257 102.659 90.2849L98.5506 96.4181L105.628 97.8836L104.287 90.6482C103.974 89.2531 103.835 88.4716 103.87 88.3037Z" fill="white"/>
<path d="M97.9161 97.3632L94.0744 103.079L92.8124 102.818L104.014 86.2333L104.707 86.3767L108.427 106.051L107.09 105.774L105.835 99.003L97.9161 97.3632ZM103.87 88.3037C103.85 88.3171 103.796 88.411 103.708 88.5853C103.328 89.2592 102.978 89.8257 102.659 90.2849L98.5506 96.4181L105.628 97.8836L104.287 90.6482C103.974 89.2531 103.835 88.4716 103.87 88.3037Z" fill="white"/>
<path d="M116.981 90.1524L110.993 88.9124L111.212 87.855L124.376 90.581L124.157 91.6385L118.169 90.3984L114.66 107.342L113.472 107.096L116.981 90.1524Z" fill="white"/>
<path d="M116.981 90.1524L110.993 88.9124L111.212 87.855L124.376 90.581L124.157 91.6385L118.169 90.3984L114.66 107.342L113.472 107.096L116.981 90.1524Z" fill="white"/>
<path d="M124.812 102.933L120.97 108.649L119.708 108.387L130.91 91.8028L131.603 91.9463L135.322 111.621L133.986 111.344L132.73 104.573L124.812 102.933ZM130.765 93.8733C130.745 93.8867 130.692 93.9805 130.604 94.1549C130.223 94.8288 129.874 95.3953 129.555 95.8544L125.446 101.988L132.523 103.453L131.183 96.2178C130.87 94.8226 130.731 94.0411 130.765 93.8733Z" fill="white"/>
<path d="M124.812 102.933L120.97 108.649L119.708 108.387L130.91 91.8028L131.603 91.9463L135.322 111.621L133.986 111.344L132.73 104.573L124.812 102.933ZM130.765 93.8733C130.745 93.8867 130.692 93.9805 130.604 94.1549C130.223 94.8288 129.874 95.3953 129.555 95.8544L125.446 101.988L132.523 103.453L131.183 96.2178C130.87 94.8226 130.731 94.0411 130.765 93.8733Z" fill="white"/>
<path d="M138.987 112.38L142.699 94.4541C144.29 94.6611 145.614 94.8739 146.67 95.0926C148.352 95.441 149.646 96.1728 150.551 97.2878C151.459 98.386 151.746 99.7408 151.412 101.352C151.186 102.443 150.663 103.394 149.841 104.204C149.02 105.014 148.164 105.615 147.274 106.009C147.707 106.991 148.245 108.17 148.889 109.547C149.553 110.909 149.986 111.769 150.188 112.126C150.968 113.425 151.978 114.282 153.217 114.696L153.025 115.497C152.022 115.271 151.237 114.951 150.669 114.536C150.105 114.104 149.596 113.526 149.144 112.803C148.708 112.082 147.687 109.91 146.081 106.287C144.464 105.952 143.006 105.598 141.707 105.224L140.175 112.626L138.987 112.38ZM145.572 105.131C146.297 105.282 147.174 104.955 148.2 104.153C149.226 103.35 149.872 102.311 150.136 101.035C150.403 99.7429 150.176 98.6806 149.454 97.8483C148.752 97.0028 147.699 96.4348 146.297 96.1444C145.555 95.9907 144.682 95.8449 143.678 95.7071L141.911 104.242C143.213 104.599 144.433 104.896 145.572 105.131Z" fill="white"/>
<path d="M138.987 112.38L142.699 94.4541C144.29 94.6611 145.614 94.8739 146.67 95.0926C148.352 95.441 149.646 96.1728 150.551 97.2878C151.459 98.386 151.746 99.7408 151.412 101.352C151.186 102.443 150.663 103.394 149.841 104.204C149.02 105.014 148.164 105.615 147.274 106.009C147.707 106.991 148.245 108.17 148.889 109.547C149.553 110.909 149.986 111.769 150.188 112.126C150.968 113.425 151.978 114.282 153.217 114.696L153.025 115.497C152.022 115.271 151.237 114.951 150.669 114.536C150.105 114.104 149.596 113.526 149.144 112.803C148.708 112.082 147.687 109.91 146.081 106.287C144.464 105.952 143.006 105.598 141.707 105.224L140.175 112.626L138.987 112.38ZM145.572 105.131C146.297 105.282 147.174 104.955 148.2 104.153C149.226 103.35 149.872 102.311 150.136 101.035C150.403 99.7429 150.176 98.6806 149.454 97.8483C148.752 97.0028 147.699 96.4348 146.297 96.1444C145.555 95.9907 144.682 95.8449 143.678 95.7071L141.911 104.242C143.213 104.599 144.433 104.896 145.572 105.131Z" fill="white"/>
<path d="M17.3339 71.4079L16.9403 73.5582L14.2501 86.5491L13.0623 86.3032L16.8213 68.1511L17.3657 68.2638L26.1897 84.348C26.7834 85.4687 27.2356 86.3588 27.5464 87.0182C27.6472 86.1989 27.8054 85.269 28.0209 84.2284L30.7215 71.187L31.9092 71.433L28.1503 89.5851L27.6059 89.4724L18.6113 73.0903C17.9846 71.9628 17.5888 71.2156 17.4239 70.8489L17.3339 71.4079Z" stroke="white" stroke-width="2" mask="url(#path-2-outside-1_0_1)"/>
<path d="M36.62 88.6872C35.3587 86.5531 34.9992 84.1768 35.5414 81.5585C36.0836 78.9402 37.3555 76.9106 39.3571 75.4696C41.3787 74.0153 43.6432 73.5478 46.1507 74.0671C48.6582 74.5863 50.5509 75.9147 51.8286 78.0522C53.1099 80.173 53.4794 82.5425 52.9372 85.1608C52.395 87.7792 51.1131 89.8155 49.0915 91.2698C47.07 92.7241 44.8054 93.1916 42.2979 92.6723C39.7904 92.1531 37.8978 90.8247 36.62 88.6872ZM40.0863 76.4346C38.3939 77.7119 37.3078 79.5088 36.8282 81.825C36.3485 84.1412 36.63 86.2299 37.6725 88.0912C38.7315 89.9558 40.3498 91.1136 42.5273 91.5646C44.7214 92.0189 46.6664 91.599 48.3623 90.3048C50.0748 89.0141 51.1708 87.2106 51.6505 84.8944C52.1301 82.5782 51.8387 80.4961 50.7762 78.6482C49.7337 76.787 48.1154 75.6292 45.9213 75.1748C43.7273 74.7205 41.7823 75.1404 40.0863 76.4346Z" stroke="white" stroke-width="2" mask="url(#path-2-outside-1_0_1)"/>
<path d="M67.7097 91.1081L63.868 96.824L62.606 96.5627L73.808 79.9781L74.5009 80.1216L78.2202 99.796L76.884 99.5193L75.6282 92.7478L67.7097 91.1081ZM73.6632 82.0486C73.6432 82.062 73.5893 82.1558 73.5016 82.3302C73.1212 83.0041 72.7716 83.5706 72.4529 84.0297L68.3442 90.163L75.4212 91.6285L74.0809 84.3931C73.7676 82.9979 73.6284 82.2164 73.6632 82.0486Z" stroke="white" stroke-width="2" mask="url(#path-2-outside-1_0_1)"/>
<path d="M87.0558 97.8186L95.9663 84.6979L97.2283 84.9593L85.8479 101.533L85.155 101.39L81.2677 81.6542L82.604 81.9309L85.5815 97.4608C85.7819 98.57 85.8917 99.3279 85.9107 99.7345C86.1539 99.2247 86.5356 98.5861 87.0558 97.8186Z" stroke="white" stroke-width="2" mask="url(#path-2-outside-1_0_1)"/>
<path d="M97.9161 97.3632L94.0744 103.079L92.8124 102.818L104.014 86.2333L104.707 86.3767L108.427 106.051L107.09 105.774L105.835 99.003L97.9161 97.3632ZM103.87 88.3037C103.85 88.3171 103.796 88.411 103.708 88.5853C103.328 89.2592 102.978 89.8257 102.659 90.2849L98.5506 96.4181L105.628 97.8836L104.287 90.6482C103.974 89.2531 103.835 88.4716 103.87 88.3037Z" stroke="white" stroke-width="2" mask="url(#path-2-outside-1_0_1)"/>
<path d="M116.981 90.1524L110.993 88.9124L111.212 87.855L124.376 90.581L124.157 91.6385L118.169 90.3984L114.66 107.342L113.472 107.096L116.981 90.1524Z" stroke="white" stroke-width="2" mask="url(#path-2-outside-1_0_1)"/>
<path d="M124.812 102.933L120.97 108.649L119.708 108.387L130.91 91.8028L131.603 91.9463L135.322 111.621L133.986 111.344L132.73 104.573L124.812 102.933ZM130.765 93.8733C130.745 93.8867 130.692 93.9805 130.604 94.1549C130.223 94.8288 129.874 95.3953 129.555 95.8544L125.446 101.988L132.523 103.453L131.183 96.2178C130.87 94.8226 130.731 94.0411 130.765 93.8733Z" stroke="white" stroke-width="2" mask="url(#path-2-outside-1_0_1)"/>
<path d="M138.987 112.38L142.699 94.4541C144.29 94.6611 145.614 94.8739 146.67 95.0926C148.352 95.441 149.646 96.1728 150.551 97.2878C151.459 98.386 151.746 99.7408 151.412 101.352C151.186 102.443 150.663 103.394 149.841 104.204C149.02 105.014 148.164 105.615 147.274 106.009C147.707 106.991 148.245 108.17 148.889 109.547C149.553 110.909 149.986 111.769 150.188 112.126C150.968 113.425 151.978 114.282 153.217 114.696L153.025 115.497C152.022 115.271 151.237 114.951 150.669 114.536C150.105 114.104 149.596 113.526 149.144 112.803C148.708 112.082 147.687 109.91 146.081 106.287C144.464 105.952 143.006 105.598 141.707 105.224L140.175 112.626L138.987 112.38ZM145.572 105.131C146.297 105.282 147.174 104.955 148.2 104.153C149.226 103.35 149.872 102.311 150.136 101.035C150.403 99.7429 150.176 98.6806 149.454 97.8483C148.752 97.0028 147.699 96.4348 146.297 96.1444C145.555 95.9907 144.682 95.8449 143.678 95.7071L141.911 104.242C143.213 104.599 144.433 104.896 145.572 105.131Z" stroke="white" stroke-width="2" mask="url(#path-2-outside-1_0_1)"/>
</svg>
