<svg width="205" height="222" viewBox="0 0 205 222" fill="none" xmlns="http://www.w3.org/2000/svg">
<path d="M150.072 30.7564C162.088 43.9347 165.608 53.6647 167.966 76.005C168.156 77.8066 168.238 79.8341 168.248 81.9295L187.502 98.75C215.371 120.305 204.976 120.433 183.646 111.975L164.726 101.66C164.726 101.66 163.035 101.602 159.413 100.717C159.849 103.033 160.125 105.514 160.536 108.372C161.518 115.202 159.235 119.265 160.536 126.041C162.399 135.738 170.61 138.858 171.829 148.657C173.127 159.086 166.637 164.361 165.477 174.806C164.472 183.858 161.242 192.924 161.242 192.924C161.242 192.924 116.309 221.551 84.3071 221.193C57.0259 220.889 17.9598 199.284 17.9598 199.284L10.196 174.806C10.196 174.806 0.501362 159.468 1.0201 148.657C1.47697 139.135 9.27205 135.529 10.196 126.041C10.511 122.806 10.196 117.719 10.196 117.719C4.7459 114.783 1.0201 108.851 1.0201 102.012C1.0201 94.0461 6.07378 87.3117 13.0193 85.1063C13.0193 85.1063 13.7756 83.4683 15.3817 81.6831C16.441 73.1634 20.4097 47.573 31.2233 32.7796C42.8712 16.8449 56.1647 9.18669 63.056 6.789C80.9148 0.575401 97.0081 -2.09625 113.783 5.08451C126.921 10.7084 139.34 18.9869 150.072 30.7564Z" fill="#353535" stroke="#353535"/>
<path d="M33.878 127.208C32.5607 127.208 31.3733 126.913 30.316 126.324C29.2587 125.717 28.418 124.877 27.794 123.802C27.1873 122.727 26.884 121.462 26.884 120.006C26.884 118.533 27.1873 117.259 27.794 116.184C28.418 115.109 29.2587 114.277 30.316 113.688C31.3733 113.099 32.5607 112.804 33.878 112.804C35.0567 112.804 36.088 113.064 36.972 113.584C37.856 114.104 38.5407 114.893 39.026 115.95C39.5113 117.007 39.754 118.359 39.754 120.006C39.754 121.635 39.52 122.987 39.052 124.062C38.584 125.119 37.908 125.908 37.024 126.428C36.1573 126.948 35.1087 127.208 33.878 127.208ZM34.58 123.88C35.2387 123.88 35.8367 123.724 36.374 123.412C36.9113 123.1 37.336 122.658 37.648 122.086C37.9773 121.497 38.142 120.803 38.142 120.006C38.142 119.191 37.9773 118.498 37.648 117.926C37.336 117.354 36.9113 116.912 36.374 116.6C35.8367 116.288 35.2387 116.132 34.58 116.132C33.904 116.132 33.2973 116.288 32.76 116.6C32.2227 116.912 31.7893 117.354 31.46 117.926C31.148 118.498 30.992 119.191 30.992 120.006C30.992 120.803 31.148 121.497 31.46 122.086C31.7893 122.658 32.2227 123.1 32.76 123.412C33.2973 123.724 33.904 123.88 34.58 123.88ZM38.246 127V124.14L38.324 119.98L38.064 115.846V107.708H42.12V127H38.246ZM52.816 127.208C51.2213 127.208 49.8173 126.896 48.604 126.272C47.408 125.648 46.4806 124.799 45.822 123.724C45.1633 122.632 44.834 121.393 44.834 120.006C44.834 118.602 45.1546 117.363 45.796 116.288C46.4546 115.196 47.3473 114.347 48.474 113.74C49.6006 113.116 50.8746 112.804 52.296 112.804C53.6653 112.804 54.896 113.099 55.988 113.688C57.0973 114.26 57.9726 115.092 58.614 116.184C59.2553 117.259 59.576 118.55 59.576 120.058C59.576 120.214 59.5673 120.396 59.55 120.604C59.5326 120.795 59.5153 120.977 59.498 121.15H48.136V118.784H57.366L55.806 119.486C55.806 118.758 55.6586 118.125 55.364 117.588C55.0693 117.051 54.662 116.635 54.142 116.34C53.622 116.028 53.0153 115.872 52.322 115.872C51.6286 115.872 51.0133 116.028 50.476 116.34C49.956 116.635 49.5486 117.059 49.254 117.614C48.9593 118.151 48.812 118.793 48.812 119.538V120.162C48.812 120.925 48.9766 121.601 49.306 122.19C49.6526 122.762 50.1293 123.204 50.736 123.516C51.36 123.811 52.088 123.958 52.92 123.958C53.6653 123.958 54.3153 123.845 54.87 123.62C55.442 123.395 55.962 123.057 56.43 122.606L58.588 124.946C57.9466 125.674 57.1406 126.237 56.17 126.636C55.1993 127.017 54.0813 127.208 52.816 127.208ZM65.8184 127L59.9424 113.012H64.1284L69.0164 125.05H66.9364L72.0064 113.012H75.9064L70.0044 127H65.8184ZM36.452 147V144.27L36.192 143.672V138.784C36.192 137.917 35.9233 137.241 35.386 136.756C34.866 136.271 34.06 136.028 32.968 136.028C32.2227 136.028 31.486 136.149 30.758 136.392C30.0473 136.617 29.4407 136.929 28.938 137.328L27.482 134.494C28.2447 133.957 29.1633 133.541 30.238 133.246C31.3127 132.951 32.4047 132.804 33.514 132.804C35.646 132.804 37.3013 133.307 38.48 134.312C39.6587 135.317 40.248 136.886 40.248 139.018V147H36.452ZM32.188 147.208C31.096 147.208 30.16 147.026 29.38 146.662C28.6 146.281 28.002 145.769 27.586 145.128C27.17 144.487 26.962 143.767 26.962 142.97C26.962 142.138 27.1613 141.41 27.56 140.786C27.976 140.162 28.626 139.677 29.51 139.33C30.394 138.966 31.5467 138.784 32.968 138.784H36.686V141.15H33.41C32.4567 141.15 31.798 141.306 31.434 141.618C31.0873 141.93 30.914 142.32 30.914 142.788C30.914 143.308 31.1133 143.724 31.512 144.036C31.928 144.331 32.4913 144.478 33.202 144.478C33.878 144.478 34.4847 144.322 35.022 144.01C35.5593 143.681 35.9493 143.204 36.192 142.58L36.816 144.452C36.5213 145.353 35.984 146.038 35.204 146.506C34.424 146.974 33.4187 147.208 32.188 147.208ZM43.9189 147V133.012H47.7929V136.964L47.2469 135.82C47.6629 134.832 48.3302 134.087 49.2489 133.584C50.1675 133.064 51.2855 132.804 52.6029 132.804V136.548C52.4295 136.531 52.2735 136.522 52.1349 136.522C51.9962 136.505 51.8489 136.496 51.6929 136.496C50.5835 136.496 49.6822 136.817 48.9889 137.458C48.3129 138.082 47.9749 139.061 47.9749 140.396V147H43.9189ZM61.217 147.208C59.5703 147.208 58.2877 146.792 57.369 145.96C56.4503 145.111 55.991 143.854 55.991 142.19V129.918H60.047V142.138C60.047 142.727 60.203 143.187 60.515 143.516C60.827 143.828 61.2517 143.984 61.789 143.984C62.4303 143.984 62.9763 143.811 63.427 143.464L64.519 146.324C64.103 146.619 63.6003 146.844 63.011 147C62.439 147.139 61.841 147.208 61.217 147.208ZM53.833 136.444V133.324H63.531V136.444H53.833ZM34.632 167.208C33.124 167.208 31.7807 166.905 30.602 166.298C29.4233 165.674 28.496 164.816 27.82 163.724C27.1613 162.632 26.832 161.393 26.832 160.006C26.832 158.602 27.1613 157.363 27.82 156.288C28.496 155.196 29.4233 154.347 30.602 153.74C31.7807 153.116 33.124 152.804 34.632 152.804C36.1053 152.804 37.388 153.116 38.48 153.74C39.572 154.347 40.378 155.222 40.898 156.366L37.752 158.056C37.388 157.397 36.9287 156.912 36.374 156.6C35.8367 156.288 35.2473 156.132 34.606 156.132C33.9127 156.132 33.2887 156.288 32.734 156.6C32.1793 156.912 31.7373 157.354 31.408 157.926C31.096 158.498 30.94 159.191 30.94 160.006C30.94 160.821 31.096 161.514 31.408 162.086C31.7373 162.658 32.1793 163.1 32.734 163.412C33.2887 163.724 33.9127 163.88 34.606 163.88C35.2473 163.88 35.8367 163.733 36.374 163.438C36.9287 163.126 37.388 162.632 37.752 161.956L40.898 163.672C40.378 164.799 39.572 165.674 38.48 166.298C37.388 166.905 36.1053 167.208 34.632 167.208ZM43.2333 167V153.012H47.1073V156.964L46.5613 155.82C46.9773 154.832 47.6447 154.087 48.5633 153.584C49.482 153.064 50.6 152.804 51.9173 152.804V156.548C51.744 156.531 51.588 156.522 51.4493 156.522C51.3107 156.505 51.1633 156.496 51.0073 156.496C49.898 156.496 48.9967 156.817 48.3033 157.458C47.6273 158.082 47.2893 159.061 47.2893 160.396V167H43.2333ZM61.1695 167.208C59.5748 167.208 58.1708 166.896 56.9575 166.272C55.7615 165.648 54.8341 164.799 54.1755 163.724C53.5168 162.632 53.1875 161.393 53.1875 160.006C53.1875 158.602 53.5081 157.363 54.1495 156.288C54.8081 155.196 55.7008 154.347 56.8275 153.74C57.9541 153.116 59.2281 152.804 60.6495 152.804C62.0188 152.804 63.2495 153.099 64.3415 153.688C65.4508 154.26 66.3261 155.092 66.9675 156.184C67.6088 157.259 67.9295 158.55 67.9295 160.058C67.9295 160.214 67.9208 160.396 67.9035 160.604C67.8861 160.795 67.8688 160.977 67.8515 161.15H56.4895V158.784H65.7195L64.1595 159.486C64.1595 158.758 64.0121 158.125 63.7175 157.588C63.4228 157.051 63.0155 156.635 62.4955 156.34C61.9755 156.028 61.3688 155.872 60.6755 155.872C59.9821 155.872 59.3668 156.028 58.8295 156.34C58.3095 156.635 57.9021 157.059 57.6075 157.614C57.3128 158.151 57.1655 158.793 57.1655 159.538V160.162C57.1655 160.925 57.3301 161.601 57.6595 162.19C58.0061 162.762 58.4828 163.204 59.0895 163.516C59.7135 163.811 60.4415 163.958 61.2735 163.958C62.0188 163.958 62.6688 163.845 63.2235 163.62C63.7955 163.395 64.3155 163.057 64.7835 162.606L66.9415 164.946C66.3001 165.674 65.4941 166.237 64.5235 166.636C63.5528 167.017 62.4348 167.208 61.1695 167.208ZM78.829 167V164.27L78.569 163.672V158.784C78.569 157.917 78.3003 157.241 77.763 156.756C77.243 156.271 76.437 156.028 75.345 156.028C74.5996 156.028 73.863 156.149 73.135 156.392C72.4243 156.617 71.8176 156.929 71.315 157.328L69.859 154.494C70.6216 153.957 71.5403 153.541 72.615 153.246C73.6896 152.951 74.7816 152.804 75.891 152.804C78.023 152.804 79.6783 153.307 80.857 154.312C82.0356 155.317 82.625 156.886 82.625 159.018V167H78.829ZM74.565 167.208C73.473 167.208 72.537 167.026 71.757 166.662C70.977 166.281 70.379 165.769 69.963 165.128C69.547 164.487 69.339 163.767 69.339 162.97C69.339 162.138 69.5383 161.41 69.937 160.786C70.353 160.162 71.003 159.677 71.887 159.33C72.771 158.966 73.9236 158.784 75.345 158.784H79.063V161.15H75.787C74.8336 161.15 74.175 161.306 73.811 161.618C73.4643 161.93 73.291 162.32 73.291 162.788C73.291 163.308 73.4903 163.724 73.889 164.036C74.305 164.331 74.8683 164.478 75.579 164.478C76.255 164.478 76.8616 164.322 77.399 164.01C77.9363 163.681 78.3263 163.204 78.569 162.58L79.193 164.452C78.8983 165.353 78.361 166.038 77.581 166.506C76.801 166.974 75.7956 167.208 74.565 167.208ZM92.0158 167.208C90.3692 167.208 89.0865 166.792 88.1678 165.96C87.2492 165.111 86.7898 163.854 86.7898 162.19V149.918H90.8458V162.138C90.8458 162.727 91.0018 163.187 91.3138 163.516C91.6258 163.828 92.0505 163.984 92.5878 163.984C93.2292 163.984 93.7752 163.811 94.2258 163.464L95.3178 166.324C94.9018 166.619 94.3992 166.844 93.8098 167C93.2378 167.139 92.6398 167.208 92.0158 167.208ZM84.6318 156.444V153.324H94.3298V156.444H84.6318ZM97.5947 167V153.012H101.651V167H97.5947ZM99.6227 151.062C98.8773 151.062 98.2707 150.845 97.8027 150.412C97.3347 149.979 97.1007 149.441 97.1007 148.8C97.1007 148.159 97.3347 147.621 97.8027 147.188C98.2707 146.755 98.8773 146.538 99.6227 146.538C100.368 146.538 100.975 146.746 101.443 147.162C101.911 147.561 102.145 148.081 102.145 148.722C102.145 149.398 101.911 149.961 101.443 150.412C100.992 150.845 100.385 151.062 99.6227 151.062ZM109.211 167L103.335 153.012H107.521L112.409 165.05H110.329L115.399 153.012H119.299L113.397 167H109.211ZM127.515 167.208C125.921 167.208 124.517 166.896 123.303 166.272C122.107 165.648 121.18 164.799 120.521 163.724C119.863 162.632 119.533 161.393 119.533 160.006C119.533 158.602 119.854 157.363 120.495 156.288C121.154 155.196 122.047 154.347 123.173 153.74C124.3 153.116 125.574 152.804 126.995 152.804C128.365 152.804 129.595 153.099 130.687 153.688C131.797 154.26 132.672 155.092 133.313 156.184C133.955 157.259 134.275 158.55 134.275 160.058C134.275 160.214 134.267 160.396 134.249 160.604C134.232 160.795 134.215 160.977 134.197 161.15H122.835V158.784H132.065L130.505 159.486C130.505 158.758 130.358 158.125 130.063 157.588C129.769 157.051 129.361 156.635 128.841 156.34C128.321 156.028 127.715 155.872 127.021 155.872C126.328 155.872 125.713 156.028 125.175 156.34C124.655 156.635 124.248 157.059 123.953 157.614C123.659 158.151 123.511 158.793 123.511 159.538V160.162C123.511 160.925 123.676 161.601 124.005 162.19C124.352 162.762 124.829 163.204 125.435 163.516C126.059 163.811 126.787 163.958 127.619 163.958C128.365 163.958 129.015 163.845 129.569 163.62C130.141 163.395 130.661 163.057 131.129 162.606L133.287 164.946C132.646 165.674 131.84 166.237 130.869 166.636C129.899 167.017 128.781 167.208 127.515 167.208Z" fill="white"/>
<path d="M41.5718 58.6821C41.5718 58.6821 46.4553 67.0425 49.9884 72.1282C54.0563 77.9837 61.2106 86.5179 61.2106 86.5179C61.2106 86.5179 62.4926 76.4646 61.2106 70.241C60.1101 64.8981 56.0671 57.2667 56.0671 57.2667L45.7801 74.4872L39 91C39 91 45.0053 80.4077 49.9884 74.4872C54.4191 69.2231 62.6134 62.2205 62.6134 62.2205L74.7708 79.9128L75.706 59.6256C75.706 59.6256 80.75 68.3683 84.5903 73.5436C87.8904 77.9909 93.7083 84.3949 93.7083 84.3949L91.838 60.8051L103.528 79.2051L108.905 68.8256C108.905 68.8256 111.955 81.8309 117.789 81.0923C122.815 80.4561 123.612 75.1449 125.037 70.241C125.99 66.9593 125.738 61.5128 125.738 61.5128C125.738 61.5128 120.199 58.6519 116.387 58.6821C113.175 58.7074 108.438 60.8051 108.438 60.8051C108.438 60.8051 107.594 68.2914 109.84 72.1282C111.719 75.3373 117.088 78.2615 117.088 78.2615C117.088 78.2615 118.133 69.3438 117.789 63.6359C117.436 57.7551 115.218 48.7744 115.218 48.7744C115.218 48.7744 118.404 59.3631 121.764 65.5231C124.67 70.8524 130.648 78.2615 130.648 78.2615C130.648 78.2615 132.508 66.7575 134.623 59.6256C136.354 53.7893 140 45 140 45" stroke="white" stroke-width="4" stroke-linecap="round" stroke-linejoin="round"/>
</svg>
