<svg width="183" height="157" viewBox="0 0 183 157" fill="none" xmlns="http://www.w3.org/2000/svg">
<g clip-path="url(#clip0_301_51)">
<path d="M1 90.5C1 127.779 23.7208 156 61 156C85.0102 156 111.9 140.768 128 119.964C128 119.964 131.008 120.415 133 120.5C141.57 120.867 147.419 114.822 149.5 106.5C153.5 90.5 142.5 82 142.5 82C142.5 44.7208 102.779 35 65.5 35C28.2208 35 1 53.2208 1 90.5Z" fill="white" stroke="black"/>
<path d="M51 111H35L43 121.5L51 111Z" fill="#586362"/>
<path d="M100 93H65.5C65.5 93 73.5168 108.371 82.5 108.5C91.6285 108.632 100 93 100 93Z" fill="black"/>
<path d="M11 93H35.5C35.5 93 29.017 105.72 22 105C15.6759 104.351 11 93 11 93Z" fill="black"/>
<path d="M100 93H65.5C65.5 93 73.5168 108.371 82.5 108.5C91.6285 108.632 100 93 100 93Z" stroke="black"/>
<path d="M11 93H35.5C35.5 93 29.017 105.72 22 105C15.6759 104.351 11 93 11 93Z" stroke="black"/>
<path d="M100 93H65.5C65.5 93 73.5168 116.798 82.5 116.999C91.6285 117.202 100 93 100 93Z" fill="url(#paint0_radial_301_51)"/>
<path d="M11 93H35.5C35.5 93 29.017 112.694 22 111.58C15.6759 110.575 11 93 11 93Z" fill="url(#paint1_radial_301_51)"/>
<ellipse cx="43" cy="135" rx="8" ry="1" fill="black"/>
<path fill-rule="evenodd" clip-rule="evenodd" d="M5.09382 62.6571C5.71364 63.3925 20.2683 67.3109 31.0093 70.5428C43.5733 74.3232 80.0539 78.7331 109.575 77.5165C123.872 76.9274 144.059 75.1978 144.059 75.1978L162.565 81.5742C183.062 86.2116 192.56 85.0523 164.565 70.5428L145.001 58.9671C144.75 57.2823 144.441 55.6595 144.059 54.2294C139.319 36.4963 134.973 29.0261 122.454 19.6451C111.273 11.2669 98.9506 5.86874 86.2779 2.67922C70.0968 -1.39328 55.6782 2.39123 40.0533 9.2046C34.024 11.8337 22.7439 19.3454 13.9264 33.3484C3.99976 49.1127 4.09446 61.4714 5.09382 62.6571ZM69.5818 70.5428L32.5883 64.1664C32.5883 64.1664 28.4557 59.1336 29.0811 55.9381C29.8332 52.0959 37.0875 49.1127 37.0875 49.1127L69.5818 54.2294C69.5818 54.2294 78.5548 60.2857 77.0556 63.4476C75.5564 66.6095 69.5818 70.5428 69.5818 70.5428Z" fill="#353535"/>
<path d="M144.059 75.1978C144.059 75.1978 123.872 76.9274 109.575 77.5165C80.0539 78.7331 43.5733 74.3232 31.0093 70.5428C20.2683 67.3109 5.71364 63.3925 5.09382 62.6571C4.09446 61.4714 3.99976 49.1127 13.9264 33.3484C22.7439 19.3454 34.024 11.8337 40.0533 9.2046C55.6782 2.39123 70.0968 -1.39328 86.2779 2.67922C98.9506 5.86874 111.273 11.2669 122.454 19.6451C134.973 29.0261 139.319 36.4963 144.059 54.2294C144.441 55.6595 144.75 57.2823 145.001 58.9671M144.059 75.1978L162.565 81.5742C183.062 86.2116 192.56 85.0523 164.565 70.5428L145.001 58.9671M144.059 75.1978C144.059 75.1978 146.028 65.8664 145.001 58.9671M32.5883 64.1664L69.5818 70.5428C69.5818 70.5428 75.5564 66.6095 77.0556 63.4476C78.5548 60.2857 69.5818 54.2294 69.5818 54.2294L37.0875 49.1127C37.0875 49.1127 29.8332 52.0959 29.0811 55.9381C28.4557 59.1336 32.5883 64.1664 32.5883 64.1664Z" stroke="black"/>
</g>
<defs>
<radialGradient id="paint0_radial_301_51" cx="0" cy="0" r="1" gradientUnits="userSpaceOnUse" gradientTransform="translate(55 34) rotate(90) scale(90.7402 190.948)">
<stop/>
<stop offset="1" stop-opacity="0"/>
</radialGradient>
<radialGradient id="paint1_radial_301_51" cx="0" cy="0" r="1" gradientUnits="userSpaceOnUse" gradientTransform="translate(55 34) rotate(90) scale(90.7402 190.948)">
<stop/>
<stop offset="1" stop-opacity="0"/>
</radialGradient>
<clipPath id="clip0_301_51">
<rect width="183" height="157" fill="white"/>
</clipPath>
</defs>
</svg>
