<svg width="49" height="46" viewBox="0 0 49 46" fill="none" xmlns="http://www.w3.org/2000/svg">
<g clip-path="url(#clip0_239_2)">
<path d="M12 19.0083C12 26.4025 16.5631 32 24.0501 32C28.8723 32 34.2727 28.9787 37.5062 24.8524C37.5062 24.8524 38.1102 24.9418 38.5103 24.9587C40.2316 25.0315 41.4063 23.8325 41.8241 22.1818C42.6275 19.0083 40.4183 17.3223 40.4183 17.3223C40.4183 9.92809 32.4409 8 24.9539 8C17.4669 8 12 11.614 12 19.0083Z" fill="white" stroke="black"/>
<path d="M22 23H18L20 25L22 23Z" fill="#586362"/>
<path d="M32 19H25.0225C25.0225 19 26.6438 22.9664 28.4607 22.9998C30.3069 23.0337 32 19 32 19Z" fill="black"/>
<path d="M14 19H18.9551C18.9551 19 17.6439 22.2823 16.2247 22.0966C14.9457 21.9292 14 19 14 19Z" fill="black"/>
<path d="M32 19H25.0225C25.0225 19 26.6438 22.9664 28.4607 22.9998C30.3069 23.0337 32 19 32 19Z" stroke="black"/>
<path d="M14 19H18.9551C18.9551 19 17.6439 22.2823 16.2247 22.0966C14.9457 21.9292 14 19 14 19Z" stroke="black"/>
<path d="M32 19H25.0225C25.0225 19 26.6438 23.958 28.4607 23.9997C30.3069 24.0422 32 19 32 19Z" fill="url(#paint0_radial_239_2)"/>
<path d="M14 19H18.9551C18.9551 19 17.6439 23.1029 16.2247 22.8708C14.9457 22.6615 14 19 14 19Z" fill="url(#paint1_radial_239_2)"/>
<path fill-rule="evenodd" clip-rule="evenodd" d="M12.0888 13.6286C12.2146 13.7792 15.1692 14.5818 17.3496 15.2437C19.9 16.018 27.3054 16.9212 33.298 16.6721C36.2003 16.5514 40.2981 16.1971 40.2981 16.1971L44.0549 17.5032C48.2156 18.453 50.1437 18.2155 44.4608 15.2437L40.4894 12.8728C40.4385 12.5277 40.3757 12.1953 40.2981 11.9024C39.3359 8.27032 38.4537 6.74029 35.9124 4.81889C33.6427 3.10286 31.1414 1.99721 28.5688 1.34394C25.2842 0.509811 22.3572 1.28495 19.1855 2.68046C17.9615 3.21896 15.6717 4.7575 13.8818 7.62557C11.8667 10.8544 11.886 13.3857 12.0888 13.6286ZM25.1796 15.2437L17.6701 13.9377C17.6701 13.9377 16.8312 12.9069 16.9581 12.2524C17.1108 11.4654 18.5834 10.8544 18.5834 10.8544L25.1796 11.9024C25.1796 11.9024 27.0011 13.1429 26.6968 13.7905C26.3924 14.4381 25.1796 15.2437 25.1796 15.2437Z" fill="#353535"/>
<path d="M40.2981 16.1971C40.2981 16.1971 36.2003 16.5514 33.298 16.6721C27.3054 16.9212 19.9 16.018 17.3496 15.2437C15.1692 14.5818 12.2146 13.7792 12.0888 13.6286C11.886 13.3857 11.8667 10.8544 13.8818 7.62557C15.6717 4.7575 17.9615 3.21896 19.1855 2.68046C22.3572 1.28495 25.2842 0.509811 28.5688 1.34394C31.1414 1.99721 33.6427 3.10286 35.9124 4.81889C38.4537 6.74029 39.3359 8.27032 40.2981 11.9024C40.3757 12.1953 40.4385 12.5277 40.4894 12.8728M40.2981 16.1971L44.0549 17.5032C48.2156 18.453 50.1437 18.2155 44.4608 15.2437L40.4894 12.8728M40.2981 16.1971C40.2981 16.1971 40.6979 14.2859 40.4894 12.8728M17.6701 13.9377L25.1796 15.2437C25.1796 15.2437 26.3924 14.4381 26.6968 13.7905C27.0011 13.1429 25.1796 11.9024 25.1796 11.9024L18.5834 10.8544C18.5834 10.8544 17.1108 11.4654 16.9581 12.2524C16.8312 12.9069 17.6701 13.9377 17.6701 13.9377Z" stroke="black"/>
<path d="M10.3679 34.5H34.6597C36.4078 34.5 37.6162 36.2482 36.9984 37.8835L34.7317 43.8835C34.3642 44.8563 33.4329 45.5 32.3931 45.5H11.0636C9.79425 45.5 8.7264 44.5488 8.58021 43.2879L7.88456 37.2879C7.7124 35.8031 8.87312 34.5 10.3679 34.5Z" fill="#5A5A5A" stroke="black"/>
<path d="M3.18603 20.5H32.7796C34.23 20.5 35.376 21.7302 35.2733 23.177L33.8714 42.9343C33.7791 44.2352 32.7022 45.2467 31.398 45.2573L4.409 45.4768C3.07882 45.4877 1.97311 44.455 1.89318 43.1272L0.690551 23.1502C0.604032 21.713 1.74625 20.5 3.18603 20.5Z" fill="#D9D9D9" stroke="black"/>
<path d="M27.5791 30.6912L28.6268 28.8798L26.8137 27.8349L27.1326 27.2835L29.4975 28.6465L28.1309 31.0093L27.5791 30.6912Z" fill="black"/>
<path d="M25.9622 31.1245L24.1491 30.0796L25.1968 28.2681L24.645 27.9501L23.2784 30.3129L25.6433 31.6758L25.9622 31.1245Z" fill="black"/>
<path d="M27.5791 30.6912L28.6268 28.8798L26.8137 27.8349L27.1326 27.2835L29.4975 28.6465L28.1309 31.0093L27.5791 30.6912Z" stroke="black"/>
<path d="M25.9622 31.1245L24.1491 30.0796L25.1968 28.2681L24.645 27.9501L23.2784 30.3129L25.6433 31.6758L25.9622 31.1245Z" stroke="black"/>
<path d="M21.2211 25.921L29.0546 23.8221C29.4386 23.7192 29.8333 23.947 29.9362 24.331L32.0352 32.1646C32.1381 32.5485 31.9102 32.9432 31.5262 33.0461L23.6927 35.1451C23.3087 35.248 22.914 35.0201 22.8111 34.6361L20.7121 26.8026C20.6092 26.4186 20.8371 26.0239 21.2211 25.921Z" stroke="black"/>
</g>
<defs>
<radialGradient id="paint0_radial_239_2" cx="0" cy="0" r="1" gradientUnits="userSpaceOnUse" gradientTransform="translate(22.8989 6.70833) rotate(90) scale(18.9042 38.6187)">
<stop/>
<stop offset="1" stop-opacity="0"/>
</radialGradient>
<radialGradient id="paint1_radial_239_2" cx="0" cy="0" r="1" gradientUnits="userSpaceOnUse" gradientTransform="translate(22.8989 6.70833) rotate(90) scale(18.9042 38.6187)">
<stop/>
<stop offset="1" stop-opacity="0"/>
</radialGradient>
<clipPath id="clip0_239_2">
<rect width="49" height="46" fill="white"/>
</clipPath>
</defs>
</svg>
